<svg width="34" height="34" viewBox="0 0 34 34" fill="none" xmlns="http://www.w3.org/2000/svg">
<path d="M13.0013 23.7479C13.5115 23.0468 13.8125 22.1834 13.8125 21.25C13.8125 18.9027 11.9097 17 9.5625 17C8.629 17 7.7658 17.3009 7.06462 17.8112L13.0013 23.7479Z" fill="white"/>
<path d="M11.9894 24.7394L6.07311 18.8231C5.59365 19.5112 5.3125 20.3477 5.3125 21.25C5.3125 23.5973 7.2153 25.5 9.5625 25.5C10.4647 25.5 11.3013 25.2188 11.9894 24.7394Z" fill="white"/>
<path d="M28.1526 23.3158C28.4933 22.7042 28.6875 21.9998 28.6875 21.25C28.6875 18.9027 26.7848 17 24.4375 17C23.6877 17 22.9833 17.1942 22.3717 17.5349L28.1526 23.3158Z" fill="white"/>
<path d="M27.2605 24.4272L21.2603 18.427C20.593 19.1777 20.1875 20.1665 20.1875 21.25C20.1875 23.5973 22.0902 25.5 24.4375 25.5C25.521 25.5 26.5098 25.0945 27.2605 24.4272Z" fill="white"/>
<path fill-rule="evenodd" clip-rule="evenodd" d="M9.5625 18.0625C7.80209 18.0625 6.375 19.4897 6.375 21.25C6.375 23.0103 7.80209 24.4375 9.5625 24.4375C11.3229 24.4375 12.75 23.0103 12.75 21.25C12.75 19.4897 11.3229 18.0625 9.5625 18.0625ZM4.25 21.25C4.25 18.3159 6.62848 15.9375 9.5625 15.9375C12.4965 15.9375 14.875 18.3159 14.875 21.25C14.875 24.1841 12.4965 26.5625 9.5625 26.5625C6.62848 26.5625 4.25 24.1841 4.25 21.25Z" fill="white"/>
<path fill-rule="evenodd" clip-rule="evenodd" d="M24.4375 18.0625C22.6772 18.0625 21.25 19.4897 21.25 21.25C21.25 23.0103 22.6772 24.4375 24.4375 24.4375C26.1978 24.4375 27.625 23.0103 27.625 21.25C27.625 19.4897 26.1978 18.0625 24.4375 18.0625ZM19.125 21.25C19.125 18.3159 21.5034 15.9375 24.4375 15.9375C27.3716 15.9375 29.75 18.3159 29.75 21.25C29.75 24.1841 27.3716 26.5625 24.4375 26.5625C21.5034 26.5625 19.125 24.1841 19.125 21.25Z" fill="white"/>
<path fill-rule="evenodd" clip-rule="evenodd" d="M12.75 21.25C12.75 20.6632 13.2257 20.1875 13.8125 20.1875H20.1875C20.7743 20.1875 21.25 20.6632 21.25 21.25C21.25 21.8368 20.7743 22.3125 20.1875 22.3125H13.8125C13.2257 22.3125 12.75 21.8368 12.75 21.25Z" fill="white"/>
<path fill-rule="evenodd" clip-rule="evenodd" d="M9.47087 9.4098C10.4222 8.30664 11.6552 7.4375 13.2452 7.4375C13.832 7.4375 14.3076 7.9132 14.3076 8.5C14.3076 9.0868 13.832 9.5625 13.2452 9.5625C12.5149 9.5625 11.8181 9.94177 11.0802 10.7975C10.3341 11.6627 9.65977 12.8873 8.98606 14.2971C8.71899 14.8559 8.44134 15.4687 8.16047 16.0887C7.77355 16.9426 7.38055 17.8101 7.00084 18.5681C6.60562 19.3572 6.17416 20.1388 5.68657 20.8195C5.74495 20.9511 5.77739 21.0967 5.77739 21.25C5.77739 21.8368 5.30169 22.3125 4.71489 22.3125H3.89588C3.45218 22.3125 3.0552 22.0368 2.90027 21.621C2.74533 21.2052 2.86507 20.737 3.20056 20.4466C3.82606 19.9053 4.44148 18.9329 5.10086 17.6164C5.47947 16.8606 5.82661 16.0922 6.18695 15.2945C6.46605 14.6767 6.75307 14.0414 7.06874 13.3808C7.75328 11.9484 8.52767 10.5036 9.47087 9.4098ZM19.6924 8.5C19.6924 7.9132 20.1681 7.4375 20.7549 7.4375C22.3449 7.4375 23.578 8.30664 24.5293 9.4098C25.4724 10.5036 26.2469 11.9484 26.9314 13.3808C27.247 14.0414 27.534 14.6767 27.8131 15.2945C28.1735 16.0922 28.5206 16.8606 28.8993 17.6164C29.5586 18.9329 30.174 19.9053 30.7995 20.4466C31.1351 20.737 31.2548 21.2052 31.0998 21.621C30.945 22.0368 30.5479 22.3125 30.1042 22.3125H29.2852C28.6984 22.3125 28.2227 21.8368 28.2227 21.25C28.2227 21.0967 28.2551 20.9511 28.3135 20.8195C27.8259 20.1388 27.3945 19.3572 26.9993 18.5681C26.6196 17.8101 26.2266 16.9426 25.8396 16.0887C25.5588 15.4687 25.2811 14.8559 25.0141 14.2971C24.3403 12.8873 23.666 11.6627 22.92 10.7975C22.182 9.94177 21.4852 9.5625 20.7549 9.5625C20.1681 9.5625 19.6924 9.0868 19.6924 8.5Z" fill="white"/>
</svg>
