<svg width="31" height="34" viewBox="0 0 31 34" fill="none" xmlns="http://www.w3.org/2000/svg">
<path fill-rule="evenodd" clip-rule="evenodd" d="M21.7016 21.5448C24.4393 21.8066 27.1042 22.0613 27.1042 17C27.1042 9.76277 21.2372 3.89583 14 3.89583C6.76277 3.89583 0.895828 9.76277 0.895828 17C0.895828 24.2372 6.76277 30.1042 14 30.1042C19.7743 30.1042 18.6859 28.1561 17.5319 26.0907C16.8457 24.8625 16.1363 23.5927 16.8333 22.6667C17.9478 21.186 19.8415 21.367 21.7016 21.5448ZM16.125 9.91666C16.125 11.0903 15.1736 12.0417 14 12.0417C12.8264 12.0417 11.875 11.0903 11.875 9.91666C11.875 8.74305 12.8264 7.79166 14 7.79166C15.1736 7.79166 16.125 8.74305 16.125 9.91666ZM9.39583 14.875C9.39583 16.0486 8.44444 17 7.27083 17C6.09722 17 5.14583 16.0486 5.14583 14.875C5.14583 13.7014 6.09722 12.75 7.27083 12.75C8.44444 12.75 9.39583 13.7014 9.39583 14.875ZM20.7292 17C21.9027 17 22.8542 16.0486 22.8542 14.875C22.8542 13.7014 21.9027 12.75 20.7292 12.75C19.5556 12.75 18.6042 13.7014 18.6042 14.875C18.6042 16.0486 19.5556 17 20.7292 17Z" fill="white"/>
</svg>
