<svg width="34" height="34" viewBox="0 0 34 34" fill="none" xmlns="http://www.w3.org/2000/svg">
<path d="M12.75 21.6042H26.2083C26.9908 21.6042 27.625 20.9699 27.625 20.1875V5.31249C27.625 4.5301 26.9908 3.89583 26.2083 3.89583H12.75V21.6042Z" fill="white"/>
<path d="M11.3333 3.89583H10.625C8.2778 3.89583 6.375 5.79862 6.375 8.14583V25.8542C6.375 23.5069 8.2778 21.6042 10.625 21.6042H11.3333V3.89583Z" fill="white"/>
<path fill-rule="evenodd" clip-rule="evenodd" d="M5.3125 8.14583C5.3125 5.21181 7.69098 2.83333 10.625 2.83333H26.2083C27.5775 2.83333 28.6875 3.94329 28.6875 5.31249V20.1875C28.6875 21.5567 27.5775 22.6667 26.2083 22.6667H10.625C8.86459 22.6667 7.4375 24.0938 7.4375 25.8542C7.4375 27.6145 8.86459 29.0417 10.625 29.0417H27.625C28.2118 29.0417 28.6875 29.5174 28.6875 30.1042C28.6875 30.6909 28.2118 31.1667 27.625 31.1667H10.625C7.69098 31.1667 5.3125 28.7882 5.3125 25.8542V8.14583ZM7.4375 21.6037C8.3254 20.9369 9.42905 20.5417 10.625 20.5417H26.2083C26.404 20.5417 26.5625 20.3831 26.5625 20.1875V5.31249C26.5625 5.1169 26.404 4.95833 26.2083 4.95833H10.625C8.86459 4.95833 7.4375 6.38542 7.4375 8.14583V21.6037Z" fill="white"/>
<path fill-rule="evenodd" clip-rule="evenodd" d="M25.8542 20.5417C26.4409 20.5417 26.9167 21.0174 26.9167 21.6042V30.1042C26.9167 30.691 26.4409 31.1667 25.8542 31.1667C25.2674 31.1667 24.7917 30.691 24.7917 30.1042V21.6042C24.7917 21.0174 25.2674 20.5417 25.8542 20.5417Z" fill="white"/>
</svg>
