<svg width="30" height="30" viewBox="0 0 30 30" fill="none" xmlns="http://www.w3.org/2000/svg">
<path d="M2.5 2.50006H4.67501C6.02501 2.50006 7.0875 3.66256 6.975 5.00006L5.9375 17.4501C5.7625 19.4876 7.37499 21.2375 9.42499 21.2375H22.7375C24.5375 21.2375 26.1125 19.7626 26.25 17.9751L26.925 8.60007C27.075 6.52507 25.5 4.83755 23.4125 4.83755H7.27501" stroke="#292929" stroke-width="1.5" stroke-miterlimit="10" stroke-linecap="round" stroke-linejoin="round"/>
<path d="M20.3125 27.5C21.1754 27.5 21.875 26.8004 21.875 25.9375C21.875 25.0746 21.1754 24.375 20.3125 24.375C19.4496 24.375 18.75 25.0746 18.75 25.9375C18.75 26.8004 19.4496 27.5 20.3125 27.5Z" stroke="#292929" stroke-width="1.5" stroke-miterlimit="10" stroke-linecap="round" stroke-linejoin="round"/>
<path d="M10.3125 27.5C11.1754 27.5 11.875 26.8004 11.875 25.9375C11.875 25.0746 11.1754 24.375 10.3125 24.375C9.44956 24.375 8.75 25.0746 8.75 25.9375C8.75 26.8004 9.44956 27.5 10.3125 27.5Z" stroke="#292929" stroke-width="1.5" stroke-miterlimit="10" stroke-linecap="round" stroke-linejoin="round"/>
<path d="M11.25 10.0001H26.25" stroke="#292929" stroke-width="1.5" stroke-miterlimit="10" stroke-linecap="round" stroke-linejoin="round"/>
</svg>
