<svg width="34" height="34" viewBox="0 0 34 34" fill="none" xmlns="http://www.w3.org/2000/svg">
<path d="M17 10.625C18.9539 10.625 20.538 9.03933 20.538 7.08333H21.7788C22.4135 7.08333 23.0296 7.29681 23.5284 7.68951L29.2095 12.1617C29.822 12.6437 29.9299 13.5306 29.4512 14.1458L27.6729 16.4313C27.1873 17.0555 26.2853 17.1606 25.6694 16.6648L23.6222 15.0167V22.6667C23.6222 25.0139 21.7215 26.9167 19.3766 26.9167H14.7668C12.4219 26.9167 10.5211 25.0139 10.5211 22.6667V15.0167L8.32395 16.7053C7.70729 17.1792 6.82417 17.0664 6.34611 16.4527L4.54924 14.1459C4.07003 13.5307 4.17786 12.6434 4.79046 12.1612L10.4709 7.68949C10.9698 7.29681 11.586 7.08333 12.2205 7.08333H13.4619C13.4619 9.03933 15.046 10.625 17 10.625Z" fill="white"/>
</svg>
