<svg width="19" height="19" viewBox="0 0 19 19" fill="none" xmlns="http://www.w3.org/2000/svg">
<path d="M0.928574 9.5H7.35714" stroke="#5F5F5F" stroke-linecap="round" stroke-linejoin="round"/>
<path d="M0.928574 16.2415H13.7857" stroke="#5F5F5F" stroke-linecap="round" stroke-linejoin="round"/>
<path d="M11.6429 9.5H18.0714" stroke="#5F5F5F" stroke-linecap="round" stroke-linejoin="round"/>
<path d="M18.0714 2.75861H5.21429" stroke="#5F5F5F" stroke-linecap="round" stroke-linejoin="round"/>
<path d="M0.928574 2.75858C0.928574 4.13001 1.7 4.90144 3.07143 4.90144C4.44286 4.90144 5.21429 4.13001 5.21429 2.75858C5.21429 1.38715 4.44286 0.615723 3.07143 0.615723C1.7 0.615723 0.928574 1.38715 0.928574 2.75858Z" stroke="#5F5F5F" stroke-linecap="round" stroke-linejoin="round"/>
<path d="M13.7857 16.2414C13.7857 17.6129 14.5571 18.3843 15.9286 18.3843C17.3 18.3843 18.0714 17.6129 18.0714 16.2414C18.0714 14.87 17.3 14.0986 15.9286 14.0986C14.5571 14.0986 13.7857 14.87 13.7857 16.2414Z" stroke="#5F5F5F" stroke-linecap="round" stroke-linejoin="round"/>
<path d="M7.39 9.50003C7.39 10.8715 8.16143 11.6429 9.53286 11.6429C10.9043 11.6429 11.6757 10.8715 11.6757 9.50003C11.6757 8.12861 10.9043 7.35718 9.53286 7.35718C8.16143 7.35718 7.39 8.12861 7.39 9.50003Z" stroke="#5F5F5F" stroke-linecap="round" stroke-linejoin="round"/>
</svg>
