<svg width="34" height="34" viewBox="0 0 34 34" fill="none" xmlns="http://www.w3.org/2000/svg">
<path fill-rule="evenodd" clip-rule="evenodd" d="M9.5625 3.89583C6.43288 3.89583 3.89583 6.43288 3.89583 9.5625V24.4375C3.89583 27.5671 6.43288 30.1042 9.5625 30.1042H24.4375C27.5671 30.1042 30.1042 27.5671 30.1042 24.4375V9.5625C30.1042 6.43288 27.5671 3.89583 24.4375 3.89583H9.5625ZM10.625 12.75C11.7986 12.75 12.75 11.7986 12.75 10.625C12.75 9.45139 11.7986 8.5 10.625 8.5C9.45139 8.5 8.5 9.45139 8.5 10.625C8.5 11.7986 9.45139 12.75 10.625 12.75ZM12.75 23.375C12.75 24.5486 11.7986 25.5 10.625 25.5C9.45139 25.5 8.5 24.5486 8.5 23.375C8.5 22.2014 9.45139 21.25 10.625 21.25C11.7986 21.25 12.75 22.2014 12.75 23.375ZM23.375 12.75C24.5486 12.75 25.5 11.7986 25.5 10.625C25.5 9.45139 24.5486 8.5 23.375 8.5C22.2014 8.5 21.25 9.45139 21.25 10.625C21.25 11.7986 22.2014 12.75 23.375 12.75ZM25.5 23.375C25.5 24.5486 24.5486 25.5 23.375 25.5C22.2014 25.5 21.25 24.5486 21.25 23.375C21.25 22.2014 22.2014 21.25 23.375 21.25C24.5486 21.25 25.5 22.2014 25.5 23.375ZM17 19.125C18.1736 19.125 19.125 18.1736 19.125 17C19.125 15.8264 18.1736 14.875 17 14.875C15.8264 14.875 14.875 15.8264 14.875 17C14.875 18.1736 15.8264 19.125 17 19.125Z" fill="white"/>
</svg>
