<svg width="31" height="30" viewBox="0 0 31 30" fill="none" xmlns="http://www.w3.org/2000/svg">
<path d="M12.9752 3.84023L12.9756 3.83992C14.3774 2.71411 16.6176 2.7217 18.038 3.8533C18.0381 3.8534 18.0383 3.85351 18.0384 3.85361L26.2216 10.4001C26.2222 10.4006 26.2228 10.4011 26.2233 10.4016C26.7155 10.8035 27.1353 11.4264 27.4048 12.1317C27.6742 12.8366 27.7771 13.5812 27.6813 14.2085L26.1074 23.627C26.1073 23.6275 26.1072 23.628 26.1071 23.6285C25.785 25.4789 23.9907 27.0001 22.125 27.0001H8.87501C6.98304 27.0001 5.22755 25.5152 4.90549 23.6416C4.90543 23.6412 4.90537 23.6409 4.90531 23.6405L3.33068 14.2177L3.33048 14.2165C3.22334 13.5844 3.32019 12.838 3.58907 12.1329C3.85793 11.4279 4.28304 10.8054 4.78686 10.4034L4.78773 10.4027L12.9752 3.84023ZM15.5 23.9376C16.2887 23.9376 16.9375 23.2887 16.9375 22.5001V18.7501C16.9375 17.9614 16.2887 17.3126 15.5 17.3126C14.7114 17.3126 14.0625 17.9614 14.0625 18.7501V22.5001C14.0625 23.2887 14.7114 23.9376 15.5 23.9376Z" fill="white" stroke="#292929"/>
</svg>
