<svg width="24" height="24" viewBox="0 0 24 24" fill="none" xmlns="http://www.w3.org/2000/svg">
<path d="M20.6201 8.45031C19.5701 3.83031 15.5401 1.75031 12.0001 1.75031C12.0001 1.75031 12.0001 1.75031 11.9901 1.75031C8.4601 1.75031 4.4201 3.82031 3.3701 8.44031C2.2001 13.6003 5.3601 17.9703 8.2201 20.7203C9.2801 21.7403 10.6401 22.2503 12.0001 22.2503C13.3601 22.2503 14.7201 21.7403 15.7701 20.7203C18.6301 17.9703 21.7901 13.6103 20.6201 8.45031ZM12.0001 13.4603C10.2601 13.4603 8.8501 12.0503 8.8501 10.3103C8.8501 8.57031 10.2601 7.16031 12.0001 7.16031C13.7401 7.16031 15.1501 8.57031 15.1501 10.3103C15.1501 12.0503 13.7401 13.4603 12.0001 13.4603Z" fill="#292929"/>
</svg>
