<svg width="30" height="30" viewBox="0 0 30 30" fill="none" xmlns="http://www.w3.org/2000/svg">
<path d="M16.097 3.63751C11.9595 3.63751 8.59701 7.00001 8.59701 11.1375V14.75C8.59701 15.5125 8.27201 16.675 7.88451 17.325L6.44701 19.7125C5.55951 21.1875 6.17201 22.825 7.79701 23.375C13.1845 25.175 18.997 25.175 24.3845 23.375C25.897 22.875 26.5595 21.0875 25.7345 19.7125L24.297 17.325C23.922 16.675 23.597 15.5125 23.597 14.75V11.1375C23.597 7.01251 20.222 3.63751 16.097 3.63751Z" stroke="#292929" stroke-width="1.5" stroke-miterlimit="10" stroke-linecap="round"/>
<path d="M18.4087 3.99987C18.0212 3.88737 17.6212 3.79987 17.2087 3.74987C16.0087 3.59987 14.8587 3.68737 13.7837 3.99987C14.1462 3.07487 15.0462 2.42487 16.0962 2.42487C17.1462 2.42487 18.0462 3.07487 18.4087 3.99987Z" stroke="#292929" stroke-width="1.5" stroke-miterlimit="10" stroke-linecap="round" stroke-linejoin="round"/>
<path d="M19.8467 23.8251C19.8467 25.8876 18.1592 27.5751 16.0967 27.5751C15.0717 27.5751 14.1217 27.1501 13.4467 26.4751C12.7717 25.8001 12.3467 24.8501 12.3467 23.8251" stroke="#292929" stroke-width="1.5" stroke-miterlimit="10"/>
</svg>
