<svg width="34" height="34" viewBox="0 0 34 34" fill="none" xmlns="http://www.w3.org/2000/svg">
<path d="M14.4511 5.21948C14.3467 4.45998 13.7215 3.89584 12.984 3.89584H12.2213C11.66 3.89584 11.1469 4.22575 10.8959 4.74805L10.2331 6.12696C9.9821 6.64926 9.46897 6.97917 8.90765 6.97917H6.64347C5.12599 6.97917 3.89583 8.25893 3.89583 9.83758C3.89583 10.9203 4.48383 11.91 5.41468 12.3942L8.36241 13.9275C9.27198 14.4006 9.88489 15.3258 9.98608 16.3785L11.0733 27.6895C11.2051 29.0602 12.3139 30.1042 13.6381 30.1042C14.8668 30.1042 15.9247 29.2019 16.1656 27.9486L16.9949 23.6351C17.1334 22.9146 17.7416 22.3958 18.4481 22.3958H21.946C22.6524 22.3958 23.2605 22.9146 23.3991 23.6351L24.2284 27.9486C24.4694 29.2019 25.5272 30.1042 26.7559 30.1042C28.0802 30.1042 29.1889 29.0602 29.3206 27.6895L30.0816 19.7727C30.3434 17.05 28.2881 14.6874 25.658 14.6874H18.3217C16.8469 14.6874 15.5964 13.5592 15.3877 12.0402L14.4511 5.21948Z" fill="white"/>
</svg>
