<svg width="30" height="30" viewBox="0 0 30 30" fill="none" xmlns="http://www.w3.org/2000/svg">
<path d="M15.15 15.975C15.0625 15.9625 14.95 15.9625 14.85 15.975C12.65 15.9 10.9 14.1 10.9 11.8875C10.9 9.62498 12.725 7.78748 15 7.78748C17.2625 7.78748 19.1 9.62498 19.1 11.8875C19.0875 14.1 17.35 15.9 15.15 15.975Z" stroke="#292929" stroke-width="1.5" stroke-linecap="round" stroke-linejoin="round"/>
<path d="M23.425 24.2251C21.2 26.2626 18.25 27.5001 15 27.5001C11.75 27.5001 8.80001 26.2626 6.57501 24.2251C6.70001 23.0501 7.45001 21.9001 8.78751 21.0001C12.2125 18.7251 17.8125 18.7251 21.2125 21.0001C22.55 21.9001 23.3 23.0501 23.425 24.2251Z" stroke="#292929" stroke-width="1.5" stroke-linecap="round" stroke-linejoin="round"/>
<path d="M15 27.5001C21.9036 27.5001 27.5 21.9036 27.5 15.0001C27.5 8.0965 21.9036 2.50006 15 2.50006C8.09644 2.50006 2.5 8.0965 2.5 15.0001C2.5 21.9036 8.09644 27.5001 15 27.5001Z" stroke="#292929" stroke-width="1.5" stroke-linecap="round" stroke-linejoin="round"/>
</svg>
